<?xml version="1.0" encoding="utf-8"?>
<!-- Generator: Adobe Illustrator 26.0.2, SVG Export Plug-In . SVG Version: 6.00 Build 0)  -->
<svg version="1.1" id="Layer_1" xmlns="http://www.w3.org/2000/svg" xmlns:xlink="http://www.w3.org/1999/xlink" x="0px" y="0px"
	 viewBox="0 0 432 72" style="enable-background:new 0 0 432 72;" xml:space="preserve">
<style type="text/css">
	.st0{fill:#FFFFFF;}
</style>
<g>
	<polygon class="st0" points="41.4,64.1 30.6,64.1 17.1,10.1 10.1,10.1 10.1,72 18,72 18,46.1 24.5,72 47.5,72 54,46.1 54,72 
		61.9,72 61.9,10.1 54.9,10.1 	"/>
	<polygon class="st0" points="7.9,7.9 18.9,7.9 32.4,61.9 39.6,61.9 53.1,7.9 64.1,7.9 64.1,72 72,72 72,0 47,0 36,43.9 25,0 0,0 
		0,72 7.9,72 	"/>
	<path class="st0" d="M130.5,0H81v72h7.9V7.9h41.6c8.1,0.2,14.5,6.9,14.2,15c-0.2,7.8-6.5,14-14.2,14.2H91.1V72H99V45h31.5
		c12.4,0,22.5-10.1,22.5-22.5S142.9,0,130.5,0z"/>
	<path class="st0" d="M142.9,22.5c0-6.8-5.5-12.4-12.4-12.4H91.1v24.7h39.4C137.3,34.9,142.9,29.3,142.9,22.5z M99,18h31.5
		c2.5,0,4.5,2,4.5,4.5s-2,4.5-4.5,4.5H99V18z"/>
	<path class="st0" d="M212.8,10.1h-40.7v51.7h40.7c6.1,0,11.1-5,11.1-11.1V21.2C223.9,15.1,218.9,10.1,212.8,10.1z M216,50.8
		c0,1.8-1.4,3.2-3.2,3.2l0,0H180V18h32.8c1.8,0,3.2,1.4,3.2,3.2c0,0,0,0,0,0V50.8z"/>
	<path class="st0" d="M212.8,0H162v72h50.8c11.7,0,21.2-9.5,21.2-21.2V21.2C234,9.5,224.5,0,212.8,0z M226.1,50.8
		c0,7.3-6,13.3-13.3,13.3h-42.9V7.9h42.9c7.4,0,13.3,6,13.3,13.3V50.8z"/>
	<path class="st0" d="M293.8,0h-29.6C252.5,0,243,9.5,243,21.2v29.6c0,11.7,9.5,21.2,21.2,21.2h29.6c11.7,0,21.2-9.5,21.2-21.2V21.2
		C315,9.5,305.5,0,293.8,0z M297,50.8c0,1.8-1.4,3.2-3.2,3.2l0,0h-29.6c-1.8,0-3.2-1.4-3.2-3.2l0,0V21.2c0-1.8,1.4-3.2,3.2-3.2l0,0
		h29.6c1.8,0,3.2,1.4,3.2,3.2c0,0,0,0,0,0V50.8z"/>
	<path class="st0" d="M374.8,0h-29.6C333.5,0,324,9.5,324,21.2v29.6c0,11.7,9.5,21.2,21.2,21.2h29.6c11.7,0,21.2-9.5,21.2-21.2V21.2
		C396,9.5,386.5,0,374.8,0z M378,50.8c0,1.8-1.4,3.2-3.2,3.2l0,0h-29.6c-1.8,0-3.2-1.4-3.2-3.2l0,0V21.2c0-1.8,1.4-3.2,3.2-3.2l0,0
		h29.6c1.8,0,3.2,1.4,3.2,3.2c0,0,0,0,0,0V50.8z"/>
	<path class="st0" d="M410.8,0H405v18h5.8c1.8,0,3.2,1.4,3.2,3.2c0,0,0,0,0,0V72h18V21.2C432,9.5,422.5,0,410.8,0z"/>
</g>
</svg>
